<?xml version="1.0" encoding="UTF-8" standalone="no"?>
<!-- Created with Inkscape (http://www.inkscape.org/) -->

<svg
   xmlns:dc="http://purl.org/dc/elements/1.1/"
   xmlns:cc="http://creativecommons.org/ns#"
   xmlns:rdf="http://www.w3.org/1999/02/22-rdf-syntax-ns#"
   xmlns:svg="http://www.w3.org/2000/svg"
   xmlns="http://www.w3.org/2000/svg"
   xmlns:sodipodi="http://sodipodi.sourceforge.net/DTD/sodipodi-0.dtd"
   xmlns:inkscape="http://www.inkscape.org/namespaces/inkscape"
   width="90"
   height="380"
   viewBox="0 0 23.812501 100.54167"
   version="1.1"
   id="svg8"
   inkscape:version="0.91 r13725"
   sodipodi:docname="Envelope.svg">
  <defs
     id="defs2" />
  <sodipodi:namedview
     id="base"
     pagecolor="#ffffff"
     bordercolor="#666666"
     borderopacity="1.0"
     inkscape:pageopacity="0.0"
     inkscape:pageshadow="2"
     inkscape:zoom="5.6"
     inkscape:cx="0.89510444"
     inkscape:cy="318.38172"
     inkscape:document-units="mm"
     inkscape:current-layer="layer1"
     showgrid="false"
     units="px"
     inkscape:snap-bbox="true"
     inkscape:snap-page="true"
     inkscape:bbox-nodes="true"
     inkscape:snap-bbox-edge-midpoints="true"
     inkscape:window-width="1920"
     inkscape:window-height="993"
     inkscape:window-x="0"
     inkscape:window-y="24"
     inkscape:window-maximized="1"
     showguides="false" />
  <metadata
     id="metadata5">
    <rdf:RDF>
      <cc:Work
         rdf:about="">
        <dc:format>image/svg+xml</dc:format>
        <dc:type
           rdf:resource="http://purl.org/dc/dcmitype/StillImage" />
        <dc:title />
      </cc:Work>
    </rdf:RDF>
  </metadata>
  <g
     inkscape:label="Layer 1"
     inkscape:groupmode="layer"
     id="layer1"
     transform="translate(0,-196.45832)">
    <path
       style="opacity:1;vector-effect:none;fill:#525252;fill-opacity:1;fill-rule:evenodd;stroke:none;stroke-width:0.48607069;stroke-linecap:butt;stroke-linejoin:round;stroke-miterlimit:4;stroke-dasharray:none;stroke-dashoffset:0;stroke-opacity:1;paint-order:normal"
       d="M 0,196.45831 H 23.8125 V 296.99999 H 0 Z"
       id="rect817"
       inkscape:connector-curvature="0" />
    <path
       style="fill:#2e277d;fill-opacity:1;stroke:none;stroke-width:0.1889881;stroke-opacity:1"
       d="m 8.8444555,211.84806 c -1.4820741,-0.39961 -3.6987109,-1.95115 -3.3235423,-2.32632 0.07116,-0.0712 1.2975537,-1.09033 2.7253247,-2.26483 l 2.5959461,-2.13545 3.470492,-0.004 3.47049,-0.004 -0.13157,0.8977 c -0.615156,4.19713 -4.742593,6.93237 -8.8071405,5.83645 z"
       id="path5592"
       inkscape:connector-curvature="0" />
    <g
       aria-label="JEM Modules"
       style="font-style:normal;font-variant:normal;font-weight:normal;font-stretch:normal;font-size:3.17499995px;line-height:1.25;font-family:Sawasdee;-inkscape-font-specification:Sawasdee;letter-spacing:0px;word-spacing:0px;fill:#ffffff;fill-opacity:1;stroke:none;stroke-width:0.26458332"
       id="text876">
      <path
         d="m 3.5428293,289.48217 h 0.1302246 v 1.71462 q 0,0.2558 -0.1658813,0.44028 -0.1643311,0.18294 -0.4015259,0.18294 -0.2387451,0 -0.4046265,-0.18294 -0.164331,-0.18293 -0.164331,-0.44028 h 0.1379761 q 0,0.20154 0.127124,0.34416 0.1286743,0.14108 0.306958,0.14108 0.1782837,0 0.3054077,-0.14108 0.1286743,-0.14262 0.1286743,-0.34416 z"
         style="font-size:3.17499995px;fill:#ffffff;fill-opacity:1;stroke-width:0.26458332"
         id="path1002" />
      <path
         d="m 5.435737,290.38289 v 0.13952 H 4.3257273 v 1.13482 H 5.525654 v 0.13952 H 4.1862009 v -2.31458 h 1.3456543 v 0.13952 H 4.3257273 v 0.7612 z"
         style="font-size:3.17499995px;fill:#ffffff;fill-opacity:1;stroke-width:0.26458332"
         id="path1004" />
      <path
         d="M 5.817109,291.79675 H 5.6806832 l 0.4433838,-2.34249 0.8449097,2.00918 0.8588623,-2.00918 0.4309814,2.34249 H 8.1130929 L 7.7735787,289.9364 6.9596749,291.82311 6.1705758,289.9364 Z"
         style="font-size:3.17499995px;fill:#ffffff;fill-opacity:1;stroke-width:0.26458332"
         id="path1006" />
      <path
         d="M 9.637031,291.79675 H 9.5006052 l 0.4433838,-2.34249 0.84491,2.00918 0.858862,-2.00918 0.430981,2.34249 h -0.145727 l -0.339514,-1.86035 -0.813904,1.88671 -0.7890992,-1.88671 z"
         style="font-size:3.17499995px;fill:#ffffff;fill-opacity:1;stroke-width:0.26458332"
         id="path1008" />
      <path
         d="m 13.12674,290.19995 q 0.162781,0 0.311609,0.0636 0.148828,0.0636 0.257349,0.17209 0.10852,0.10852 0.172082,0.25889 0.06356,0.15038 0.06356,0.31471 0,0.16589 -0.06356,0.31626 -0.06356,0.15038 -0.172082,0.2589 -0.108521,0.10697 -0.257349,0.17209 -0.148828,0.0636 -0.311609,0.0636 -0.333313,0 -0.568957,-0.2372 -0.235645,-0.23719 -0.235645,-0.57361 0,-0.22014 0.10697,-0.40617 0.108521,-0.18759 0.293006,-0.29456 0.186035,-0.10852 0.404626,-0.10852 z m -0.666626,0.80925 q 0,0.27751 0.195337,0.47594 0.196887,0.19689 0.47439,0.19689 0.277502,0 0.472839,-0.19689 0.196887,-0.19843 0.196887,-0.47594 0,-0.27595 -0.196887,-0.47284 -0.195337,-0.19688 -0.472839,-0.19688 -0.277503,0 -0.47439,0.19688 -0.195337,0.19689 -0.195337,0.47284 z"
         style="font-size:3.17499995px;fill:#ffffff;fill-opacity:1;stroke-width:0.26458332"
         id="path1010" />
      <path
         d="m 15.785493,291.79675 h -0.148828 q -0.02636,-0.0915 -0.02636,-0.20774 v -0.19533 q -0.05891,0.16123 -0.234094,0.29455 -0.173633,0.13178 -0.348816,0.13178 -0.196887,0 -0.362769,-0.11007 -0.164331,-0.11007 -0.258898,-0.29611 -0.09302,-0.18758 -0.09302,-0.40463 0,-0.21704 0.09302,-0.40152 0.09457,-0.18604 0.258898,-0.29611 0.165882,-0.11162 0.362769,-0.11162 0.178284,0 0.351917,0.13023 0.173632,0.12867 0.230993,0.29765 v -1.14566 h 0.137976 v 2.10684 q 0,0.13333 0.03721,0.20774 z m -0.348816,-0.31161 q 0.173633,-0.19688 0.173633,-0.47594 0,-0.27905 -0.172082,-0.47439 -0.172083,-0.19533 -0.410828,-0.19533 -0.237195,0 -0.410828,0.19533 -0.173632,0.19534 -0.173632,0.47439 0,0.27751 0.173632,0.47594 0.173633,0.19689 0.410828,0.19689 0.237195,0 0.409277,-0.19689 z"
         style="font-size:3.17499995px;fill:#ffffff;fill-opacity:1;stroke-width:0.26458332"
         id="path1012" />
      <path
         d="m 16.266084,290.22476 h 0.139526 v 0.97203 q 0,0.20309 0.122473,0.34416 0.122473,0.14108 0.299207,0.14108 0.178283,0 0.306958,-0.14108 0.130224,-0.14262 0.130224,-0.34416 v -0.97203 h 0.139527 v 0.97203 q 0,0.2558 -0.165882,0.44028 -0.165881,0.18294 -0.404626,0.18294 -0.237195,0 -0.403076,-0.18294 -0.164331,-0.18448 -0.164331,-0.44028 z"
         style="font-size:3.17499995px;fill:#ffffff;fill-opacity:1;stroke-width:0.26458332"
         id="path1014" />
      <path
         d="m 18.061323,291.79675 h -0.139526 v -2.31458 h 0.139526 z"
         style="font-size:3.17499995px;fill:#ffffff;fill-opacity:1;stroke-width:0.26458332"
         id="path1016" />
      <path
         d="m 18.662836,290.87743 h 1.142566 q -0.04341,-0.2341 -0.204639,-0.38602 -0.16123,-0.15193 -0.368969,-0.15193 -0.206189,0 -0.36742,0.15193 -0.15968,0.15192 -0.201538,0.38602 z m 1.294495,0.13177 h -1.316199 q 0,0.27751 0.173633,0.47129 0.173633,0.19379 0.410828,0.19379 0.156579,0 0.306958,-0.0837 0.150378,-0.0837 0.229443,-0.22479 l 0.122473,0.0698 q -0.09457,0.16899 -0.279053,0.27751 -0.184484,0.10697 -0.379821,0.10697 -0.196888,0 -0.362769,-0.11007 -0.164331,-0.11007 -0.258899,-0.29611 -0.09302,-0.18758 -0.09302,-0.40463 0,-0.21549 0.09457,-0.40152 0.09612,-0.18604 0.262,-0.29611 0.167432,-0.11162 0.364319,-0.11162 0.186035,0 0.345715,0.10077 0.161231,0.0992 0.260449,0.2682 0.09922,0.16898 0.116272,0.37052 z"
         style="font-size:3.17499995px;fill:#ffffff;fill-opacity:1;stroke-width:0.26458332"
         id="path1018" />
      <path
         d="m 21.240974,290.50226 -0.128674,0.045 q -0.03256,-0.10387 -0.110071,-0.15813 -0.07751,-0.0558 -0.165882,-0.0558 -0.102319,0 -0.175183,0.0651 -0.07131,0.0651 -0.07131,0.17673 0,0.0589 0.03256,0.10697 0.03256,0.0481 0.08527,0.0791 0.05271,0.031 0.119373,0.0636 0.06821,0.0326 0.137976,0.0605 0.06976,0.0279 0.136425,0.0698 0.06821,0.0419 0.120923,0.0899 0.05271,0.0481 0.08527,0.12402 0.03256,0.076 0.03256,0.17054 0,0.21549 -0.153479,0.35036 -0.153479,0.13333 -0.356568,0.13333 -0.08837,0 -0.168982,-0.0279 -0.08061,-0.0294 -0.148828,-0.0853 -0.06821,-0.0558 -0.116272,-0.14883 -0.04806,-0.093 -0.06201,-0.21239 l 0.137977,-0.0202 q 0.0217,0.17674 0.122473,0.26665 0.102319,0.0899 0.238745,0.0899 0.144177,0 0.255798,-0.0961 0.111621,-0.0977 0.111621,-0.24959 0,-0.0837 -0.04186,-0.14728 -0.04186,-0.0651 -0.10852,-0.10542 -0.06511,-0.0403 -0.145728,-0.076 -0.08062,-0.0356 -0.16123,-0.0729 -0.08062,-0.0372 -0.147278,-0.0806 -0.06511,-0.045 -0.10697,-0.11628 -0.04186,-0.0729 -0.04186,-0.16588 0,-0.17363 0.114722,-0.27595 0.116271,-0.10232 0.274401,-0.10232 0.130225,0 0.243396,0.0791 0.113172,0.0775 0.161231,0.22634 z"
         style="font-size:3.17499995px;fill:#ffffff;fill-opacity:1;stroke-width:0.26458332"
         id="path1020" />
    </g>
    <flowRoot
       xml:space="preserve"
       id="flowRoot878"
       style="fill:black;fill-opacity:1;stroke:none;font-family:Sawasdee;font-style:normal;font-weight:normal;font-size:13.33333333px;line-height:1.25;letter-spacing:0px;word-spacing:0px;-inkscape-font-specification:Sawasdee;font-stretch:normal;font-variant:normal"><flowRegion
         id="flowRegion880"><rect
           id="rect882"
           width="48.92857"
           height="17.5"
           x="-102.85714"
           y="330.71429" /></flowRegion><flowPara
         id="flowPara884" /></flowRoot>    <text
       xml:space="preserve"
       style="font-style:normal;font-weight:normal;font-size:10.58333492px;line-height:125%;font-family:sans-serif;letter-spacing:0px;word-spacing:0px;fill:#000000;fill-opacity:1;stroke:none;stroke-width:1px;stroke-linecap:butt;stroke-linejoin:miter;stroke-opacity:1"
       x="-8.2209835"
       y="205.43524"
       id="text3362"
       sodipodi:linespacing="125%"><tspan
         sodipodi:role="line"
         id="tspan3364"
         x="-8.2209835"
         y="205.43524" /></text>
    <g
       style="font-style:normal;font-variant:normal;font-weight:normal;font-stretch:normal;font-size:3.30729198px;line-height:125%;font-family:Sawasdee;-inkscape-font-specification:Sawasdee;letter-spacing:0px;word-spacing:0px;fill:#ffffff;fill-opacity:1;stroke:none;stroke-width:1px;stroke-linecap:butt;stroke-linejoin:miter;stroke-opacity:1"
       id="text3366">
      <path
         d="m 11.545964,203.60341 0.972163,0 -0.487696,-1.17079 -0.484467,1.17079 z m 1.030299,0.14534 -1.099739,0 -0.306829,0.74769 -0.155029,0 1.01092,-2.44009 1.01415,2.44009 -0.155029,0 -0.308444,-0.74769 z"
         style=""
         id="path4171" />
      <path
         d="m 13.511283,204.3511 0.339127,0 q 0.295525,0 0.542603,-0.13888 0.248693,-0.13888 0.392418,-0.38272 0.14534,-0.24385 0.14534,-0.53615 0,-0.29552 -0.14534,-0.53937 -0.143725,-0.24546 -0.392418,-0.38434 -0.247078,-0.13888 -0.542603,-0.13888 l -0.339127,0 0,2.12034 z m -0.14534,0.14534 0,-2.41102 0.484467,0 q 0.248693,0 0.474777,0.0937 0.226085,0.0937 0.390803,0.25515 0.164719,0.15988 0.261612,0.38435 0.09689,0.22446 0.09689,0.47477 0,0.33267 -0.164719,0.61043 -0.164719,0.27615 -0.445709,0.43441 -0.280991,0.15825 -0.613658,0.15825 l -0.484467,0 z"
         style=""
         id="path4173" />
      <path
         d="m 16.82988,202.51175 -0.137266,0.0468 q -0.05652,-0.17279 -0.187327,-0.26161 -0.129191,-0.0888 -0.282606,-0.0888 -0.185712,0 -0.303599,0.1195 -0.116272,0.1195 -0.116272,0.29229 0,0.0888 0.04037,0.16149 0.04037,0.0727 0.108197,0.12435 0.06782,0.0517 0.155029,0.0969 0.08882,0.0436 0.185713,0.084 0.09851,0.0404 0.195401,0.0856 0.09851,0.0436 0.185712,0.10173 0.08882,0.0581 0.156645,0.1292 0.06782,0.0711 0.108197,0.1744 0.04037,0.10336 0.04037,0.22932 0,0.20993 -0.108197,0.37627 -0.108198,0.16633 -0.280991,0.25353 -0.172793,0.0872 -0.373039,0.0872 -0.130806,0 -0.250308,-0.042 -0.119502,-0.042 -0.222854,-0.12435 -0.103353,-0.084 -0.176023,-0.22285 -0.07267,-0.13888 -0.09528,-0.31813 l 0.143725,-0.0178 q 0.04037,0.29068 0.206706,0.43441 0.167948,0.14211 0.394033,0.14211 0.159874,0 0.298754,-0.0662 0.138881,-0.0678 0.2277,-0.20025 0.09043,-0.13403 0.09043,-0.30683 0,-0.10819 -0.04037,-0.1954 -0.04037,-0.0872 -0.108197,-0.14695 -0.06783,-0.0598 -0.156645,-0.10982 -0.0872,-0.0501 -0.185712,-0.0904 -0.09689,-0.042 -0.195401,-0.084 -0.09689,-0.042 -0.185713,-0.0937 -0.0872,-0.0517 -0.155029,-0.11304 -0.06782,-0.0614 -0.108197,-0.15018 -0.04037,-0.0904 -0.04037,-0.20187 0,-0.23254 0.15826,-0.39564 0.158259,-0.16472 0.406951,-0.16472 0.193787,0 0.36335,0.12111 0.171179,0.11951 0.243849,0.33429 z"
         style=""
         id="path4175" />
      <path
         d="m 17.441922,204.49644 0,-2.41102 0.855891,0 q 0.259997,0 0.440865,0.18894 0.180867,0.18732 0.180867,0.4554 0,0.2277 -0.14211,0.40533 -0.140495,0.17603 -0.352046,0.21963 l 0.624962,1.14172 -0.163103,0 -0.620118,-1.13203 -0.679868,0 0,1.13203 -0.14534,0 z m 0.14534,-1.27576 0.715396,0 q 0.192172,0 0.329437,-0.14372 0.138881,-0.14373 0.138881,-0.3472 0,-0.20671 -0.138881,-0.35205 -0.13888,-0.14695 -0.334282,-0.14695 l -0.710551,0 0,0.98992 z"
         style=""
         id="path4177" />
    </g>
  </g>
</svg>
