<?xml version="1.0" encoding="UTF-8" standalone="no"?>
<!-- Created with Inkscape (http://www.inkscape.org/) -->

<svg
   xmlns:dc="http://purl.org/dc/elements/1.1/"
   xmlns:cc="http://creativecommons.org/ns#"
   xmlns:rdf="http://www.w3.org/1999/02/22-rdf-syntax-ns#"
   xmlns:svg="http://www.w3.org/2000/svg"
   xmlns="http://www.w3.org/2000/svg"
   xmlns:sodipodi="http://sodipodi.sourceforge.net/DTD/sodipodi-0.dtd"
   xmlns:inkscape="http://www.inkscape.org/namespaces/inkscape"
   width="90"
   height="380"
   viewBox="0 0 23.812501 100.54167"
   version="1.1"
   id="svg8"
   inkscape:version="0.92.2 (unknown)"
   sodipodi:docname="VCA.svg">
  <defs
     id="defs2" />
  <sodipodi:namedview
     id="base"
     pagecolor="#ffffff"
     bordercolor="#666666"
     borderopacity="1.0"
     inkscape:pageopacity="0.0"
     inkscape:pageshadow="2"
     inkscape:zoom="1.979899"
     inkscape:cx="35.811708"
     inkscape:cy="211.91152"
     inkscape:document-units="mm"
     inkscape:current-layer="layer1"
     showgrid="false"
     units="px"
     inkscape:snap-bbox="true"
     inkscape:snap-page="true"
     inkscape:bbox-nodes="true"
     inkscape:snap-bbox-edge-midpoints="true"
     inkscape:window-width="1920"
     inkscape:window-height="1001"
     inkscape:window-x="1680"
     inkscape:window-y="24"
     inkscape:window-maximized="1" />
  <metadata
     id="metadata5">
    <rdf:RDF>
      <cc:Work
         rdf:about="">
        <dc:format>image/svg+xml</dc:format>
        <dc:type
           rdf:resource="http://purl.org/dc/dcmitype/StillImage" />
        <dc:title />
      </cc:Work>
    </rdf:RDF>
  </metadata>
  <g
     inkscape:label="Layer 1"
     inkscape:groupmode="layer"
     id="layer1"
     transform="translate(0,-196.45832)">
    <path
       style="opacity:1;vector-effect:none;fill:#525252;fill-opacity:1;fill-rule:evenodd;stroke:none;stroke-width:0.48607069;stroke-linecap:butt;stroke-linejoin:round;stroke-miterlimit:4;stroke-dasharray:none;stroke-dashoffset:0;stroke-opacity:1;paint-order:normal"
       d="M 0,196.45831 H 23.8125 V 296.99999 H 0 Z"
       id="rect817"
       inkscape:connector-curvature="0" />
    <path
       style="fill:#2e277d;fill-opacity:1;stroke:none;stroke-width:0.1889881;stroke-opacity:1"
       d="m 8.8444555,211.84806 c -1.4820741,-0.39961 -3.6987109,-1.95115 -3.3235423,-2.32632 0.07116,-0.0712 1.2975537,-1.09033 2.7253247,-2.26483 l 2.5959461,-2.13545 3.470492,-0.004 3.47049,-0.004 -0.13157,0.8977 c -0.615156,4.19713 -4.742593,6.93237 -8.8071405,5.83645 z"
       id="path5592"
       inkscape:connector-curvature="0" />
    <g
       aria-label="VCA"
       style="font-style:normal;font-variant:normal;font-weight:normal;font-stretch:normal;font-size:3.52777767px;line-height:1.25;font-family:Sawasdee;-inkscape-font-specification:Sawasdee;letter-spacing:0px;word-spacing:0px;fill:#fefefe;fill-opacity:1;stroke:none;stroke-width:0.26458332"
       id="text64">
      <path
         d="m 11.98817,201.9774 h 0.170532 l -1.033528,2.60105 -1.064535,-2.60105 h 0.165365 l 0.894002,2.18591 z"
         style="font-size:3.52777767px;fill:#fefefe;fill-opacity:1;stroke-width:0.26458332"
         id="path897" />
      <path
         d="m 14.658119,203.95316 0.124024,0.0844 q -0.179145,0.24632 -0.454753,0.38929 -0.275608,0.14125 -0.594279,0.14125 -0.265272,0 -0.506429,-0.10335 -0.241157,-0.10335 -0.415134,-0.27905 -0.173977,-0.1757 -0.27733,-0.41858 -0.103353,-0.24288 -0.103353,-0.50988 0,-0.26699 0.103353,-0.50987 0.103353,-0.24288 0.27733,-0.41858 0.173977,-0.1757 0.415134,-0.27905 0.241157,-0.10336 0.506429,-0.10336 0.316949,0 0.592557,0.1447 0.275607,0.14297 0.456475,0.39102 l -0.124024,0.0913 q -0.160197,-0.21532 -0.403076,-0.33934 -0.241157,-0.12575 -0.521932,-0.12575 -0.313504,0 -0.578776,0.15503 -0.26355,0.15503 -0.416856,0.42203 -0.153307,0.26527 -0.153307,0.5805 0,0.23426 0.08957,0.44786 0.0913,0.21359 0.244602,0.36862 0.153307,0.15503 0.366903,0.24805 0.213596,0.0913 0.447862,0.0913 0.280775,0 0.521932,-0.12575 0.242879,-0.12575 0.403076,-0.34279 z"
         style="font-size:3.52777767px;fill:#fefefe;fill-opacity:1;stroke-width:0.26458332"
         id="path899" />
      <path
         d="m 15.739879,203.59659 h 1.036974 l -0.520209,-1.24884 z m 1.098986,0.15503 H 15.66581 l -0.327284,0.79754 h -0.165365 l 1.078315,-2.60277 1.08176,2.60277 h -0.165365 z"
         style="font-size:3.52777767px;fill:#fefefe;fill-opacity:1;stroke-width:0.26458332"
         id="path901" />
    </g>
    <g
       aria-label="JEM Modules"
       style="font-style:normal;font-variant:normal;font-weight:normal;font-stretch:normal;font-size:3.17499995px;line-height:1.25;font-family:Sawasdee;-inkscape-font-specification:Sawasdee;letter-spacing:0px;word-spacing:0px;fill:#ffffff;fill-opacity:1;stroke:none;stroke-width:0.26458332"
       id="text876">
      <path
         d="m 3.5428293,289.48217 h 0.1302246 v 1.71462 q 0,0.2558 -0.1658813,0.44028 -0.1643311,0.18294 -0.4015259,0.18294 -0.2387451,0 -0.4046265,-0.18294 -0.164331,-0.18293 -0.164331,-0.44028 h 0.1379761 q 0,0.20154 0.127124,0.34416 0.1286743,0.14108 0.306958,0.14108 0.1782837,0 0.3054077,-0.14108 0.1286743,-0.14262 0.1286743,-0.34416 z"
         style="font-size:3.17499995px;fill:#ffffff;fill-opacity:1;stroke-width:0.26458332"
         id="path923" />
      <path
         d="m 5.435737,290.38289 v 0.13952 H 4.3257273 v 1.13482 H 5.525654 v 0.13952 H 4.1862009 v -2.31458 h 1.3456543 v 0.13952 H 4.3257273 v 0.7612 z"
         style="font-size:3.17499995px;fill:#ffffff;fill-opacity:1;stroke-width:0.26458332"
         id="path925" />
      <path
         d="M 5.817109,291.79675 H 5.6806832 l 0.4433838,-2.34249 0.8449097,2.00918 0.8588623,-2.00918 0.4309814,2.34249 H 8.1130929 L 7.7735787,289.9364 6.9596749,291.82311 6.1705758,289.9364 Z"
         style="font-size:3.17499995px;fill:#ffffff;fill-opacity:1;stroke-width:0.26458332"
         id="path927" />
      <path
         d="M 9.637031,291.79675 H 9.5006052 l 0.4433838,-2.34249 0.84491,2.00918 0.858862,-2.00918 0.430981,2.34249 h -0.145727 l -0.339514,-1.86035 -0.813904,1.88671 -0.7890992,-1.88671 z"
         style="font-size:3.17499995px;fill:#ffffff;fill-opacity:1;stroke-width:0.26458332"
         id="path929" />
      <path
         d="m 13.12674,290.19995 q 0.162781,0 0.311609,0.0636 0.148828,0.0636 0.257349,0.17209 0.10852,0.10852 0.172082,0.25889 0.06356,0.15038 0.06356,0.31471 0,0.16589 -0.06356,0.31626 -0.06356,0.15038 -0.172082,0.2589 -0.108521,0.10697 -0.257349,0.17209 -0.148828,0.0636 -0.311609,0.0636 -0.333313,0 -0.568957,-0.2372 -0.235645,-0.23719 -0.235645,-0.57361 0,-0.22014 0.10697,-0.40617 0.108521,-0.18759 0.293006,-0.29456 0.186035,-0.10852 0.404626,-0.10852 z m -0.666626,0.80925 q 0,0.27751 0.195337,0.47594 0.196887,0.19689 0.47439,0.19689 0.277502,0 0.472839,-0.19689 0.196887,-0.19843 0.196887,-0.47594 0,-0.27595 -0.196887,-0.47284 -0.195337,-0.19688 -0.472839,-0.19688 -0.277503,0 -0.47439,0.19688 -0.195337,0.19689 -0.195337,0.47284 z"
         style="font-size:3.17499995px;fill:#ffffff;fill-opacity:1;stroke-width:0.26458332"
         id="path931" />
      <path
         d="m 15.785493,291.79675 h -0.148828 q -0.02636,-0.0915 -0.02636,-0.20774 v -0.19533 q -0.05891,0.16123 -0.234094,0.29455 -0.173633,0.13178 -0.348816,0.13178 -0.196887,0 -0.362769,-0.11007 -0.164331,-0.11007 -0.258898,-0.29611 -0.09302,-0.18758 -0.09302,-0.40463 0,-0.21704 0.09302,-0.40152 0.09457,-0.18604 0.258898,-0.29611 0.165882,-0.11162 0.362769,-0.11162 0.178284,0 0.351917,0.13023 0.173632,0.12867 0.230993,0.29765 v -1.14566 h 0.137976 v 2.10684 q 0,0.13333 0.03721,0.20774 z m -0.348816,-0.31161 q 0.173633,-0.19688 0.173633,-0.47594 0,-0.27905 -0.172082,-0.47439 -0.172083,-0.19533 -0.410828,-0.19533 -0.237195,0 -0.410828,0.19533 -0.173632,0.19534 -0.173632,0.47439 0,0.27751 0.173632,0.47594 0.173633,0.19689 0.410828,0.19689 0.237195,0 0.409277,-0.19689 z"
         style="font-size:3.17499995px;fill:#ffffff;fill-opacity:1;stroke-width:0.26458332"
         id="path933" />
      <path
         d="m 16.266084,290.22476 h 0.139526 v 0.97203 q 0,0.20309 0.122473,0.34416 0.122473,0.14108 0.299207,0.14108 0.178283,0 0.306958,-0.14108 0.130224,-0.14262 0.130224,-0.34416 v -0.97203 h 0.139527 v 0.97203 q 0,0.2558 -0.165882,0.44028 -0.165881,0.18294 -0.404626,0.18294 -0.237195,0 -0.403076,-0.18294 -0.164331,-0.18448 -0.164331,-0.44028 z"
         style="font-size:3.17499995px;fill:#ffffff;fill-opacity:1;stroke-width:0.26458332"
         id="path935" />
      <path
         d="m 18.061323,291.79675 h -0.139526 v -2.31458 h 0.139526 z"
         style="font-size:3.17499995px;fill:#ffffff;fill-opacity:1;stroke-width:0.26458332"
         id="path937" />
      <path
         d="m 18.662836,290.87743 h 1.142566 q -0.04341,-0.2341 -0.204639,-0.38602 -0.16123,-0.15193 -0.368969,-0.15193 -0.206189,0 -0.36742,0.15193 -0.15968,0.15192 -0.201538,0.38602 z m 1.294495,0.13177 h -1.316199 q 0,0.27751 0.173633,0.47129 0.173633,0.19379 0.410828,0.19379 0.156579,0 0.306958,-0.0837 0.150378,-0.0837 0.229443,-0.22479 l 0.122473,0.0698 q -0.09457,0.16899 -0.279053,0.27751 -0.184484,0.10697 -0.379821,0.10697 -0.196888,0 -0.362769,-0.11007 -0.164331,-0.11007 -0.258899,-0.29611 -0.09302,-0.18758 -0.09302,-0.40463 0,-0.21549 0.09457,-0.40152 0.09612,-0.18604 0.262,-0.29611 0.167432,-0.11162 0.364319,-0.11162 0.186035,0 0.345715,0.10077 0.161231,0.0992 0.260449,0.2682 0.09922,0.16898 0.116272,0.37052 z"
         style="font-size:3.17499995px;fill:#ffffff;fill-opacity:1;stroke-width:0.26458332"
         id="path939" />
      <path
         d="m 21.240974,290.50226 -0.128674,0.045 q -0.03256,-0.10387 -0.110071,-0.15813 -0.07751,-0.0558 -0.165882,-0.0558 -0.102319,0 -0.175183,0.0651 -0.07131,0.0651 -0.07131,0.17673 0,0.0589 0.03256,0.10697 0.03256,0.0481 0.08527,0.0791 0.05271,0.031 0.119373,0.0636 0.06821,0.0326 0.137976,0.0605 0.06976,0.0279 0.136425,0.0698 0.06821,0.0419 0.120923,0.0899 0.05271,0.0481 0.08527,0.12402 0.03256,0.076 0.03256,0.17054 0,0.21549 -0.153479,0.35036 -0.153479,0.13333 -0.356568,0.13333 -0.08837,0 -0.168982,-0.0279 -0.08061,-0.0294 -0.148828,-0.0853 -0.06821,-0.0558 -0.116272,-0.14883 -0.04806,-0.093 -0.06201,-0.21239 l 0.137977,-0.0202 q 0.0217,0.17674 0.122473,0.26665 0.102319,0.0899 0.238745,0.0899 0.144177,0 0.255798,-0.0961 0.111621,-0.0977 0.111621,-0.24959 0,-0.0837 -0.04186,-0.14728 -0.04186,-0.0651 -0.10852,-0.10542 -0.06511,-0.0403 -0.145728,-0.076 -0.08062,-0.0356 -0.16123,-0.0729 -0.08062,-0.0372 -0.147278,-0.0806 -0.06511,-0.045 -0.10697,-0.11628 -0.04186,-0.0729 -0.04186,-0.16588 0,-0.17363 0.114722,-0.27595 0.116271,-0.10232 0.274401,-0.10232 0.130225,0 0.243396,0.0791 0.113172,0.0775 0.161231,0.22634 z"
         style="font-size:3.17499995px;fill:#ffffff;fill-opacity:1;stroke-width:0.26458332"
         id="path941" />
    </g>
    <flowRoot
       xml:space="preserve"
       id="flowRoot878"
       style="fill:black;fill-opacity:1;stroke:none;font-family:Sawasdee;font-style:normal;font-weight:normal;font-size:13.33333333px;line-height:1.25;letter-spacing:0px;word-spacing:0px;-inkscape-font-specification:Sawasdee;font-stretch:normal;font-variant:normal"><flowRegion
         id="flowRegion880"><rect
           id="rect882"
           width="48.92857"
           height="17.5"
           x="-102.85714"
           y="330.71429" /></flowRegion><flowPara
         id="flowPara884" /></flowRoot>    <g
       aria-label="out"
       style="font-style:normal;font-variant:normal;font-weight:normal;font-stretch:normal;font-size:3.17499995px;line-height:1.25;font-family:Sawasdee;-inkscape-font-specification:Sawasdee;letter-spacing:0px;word-spacing:0px;fill:#ffffff;fill-opacity:1;stroke:none;stroke-width:0.26458332"
       id="text888">
      <path
         d="m 10.60278,278.12039 q 0.162781,0 0.311609,0.0636 0.148828,0.0636 0.257349,0.17209 0.10852,0.10852 0.172082,0.2589 0.06356,0.15037 0.06356,0.3147 0,0.16589 -0.06356,0.31626 -0.06356,0.15038 -0.172082,0.2589 -0.108521,0.10697 -0.257349,0.17209 -0.148828,0.0636 -0.311609,0.0636 -0.333313,0 -0.568957,-0.2372 -0.2356449,-0.23719 -0.2356449,-0.57361 0,-0.22014 0.1069702,-0.40617 0.1085207,-0.18759 0.2930057,-0.29456 0.186035,-0.10852 0.404626,-0.10852 z m -0.6666258,0.80925 q 0,0.27751 0.1953368,0.47594 0.196887,0.19689 0.47439,0.19689 0.277502,0 0.472839,-0.19689 0.196887,-0.19843 0.196887,-0.47594 0,-0.27595 -0.196887,-0.47283 -0.195337,-0.19689 -0.472839,-0.19689 -0.277503,0 -0.47439,0.19689 -0.1953368,0.19688 -0.1953368,0.47283 z"
         style="font-size:3.17499995px;fill:#ffffff;fill-opacity:1;stroke-width:0.26458332"
         id="path916" />
      <path
         d="m 11.856967,278.1452 h 0.139527 v 0.97203 q 0,0.20309 0.122473,0.34417 0.122473,0.14107 0.299206,0.14107 0.178284,0 0.306958,-0.14107 0.130225,-0.14263 0.130225,-0.34417 v -0.97203 h 0.139526 v 0.97203 q 0,0.2558 -0.165881,0.44028 -0.165882,0.18294 -0.404627,0.18294 -0.237194,0 -0.403076,-0.18294 -0.164331,-0.18448 -0.164331,-0.44028 z"
         style="font-size:3.17499995px;fill:#ffffff;fill-opacity:1;stroke-width:0.26458332"
         id="path918" />
      <path
         d="M 13.652206,279.71719 H 13.51268 v -1.43402 h -0.137976 v -0.13797 h 0.137976 v -0.37207 h 0.139526 v 0.37207 h 0.434082 l -0.04651,0.13797 h -0.387573 z"
         style="font-size:3.17499995px;fill:#ffffff;fill-opacity:1;stroke-width:0.26458332"
         id="path920" />
    </g>
    <g
       aria-label="mod"
       style="font-style:normal;font-variant:normal;font-weight:normal;font-stretch:normal;font-size:3.17499995px;line-height:1.25;font-family:Sawasdee;-inkscape-font-specification:Sawasdee;letter-spacing:0px;word-spacing:0px;fill:#ffffff;fill-opacity:1;stroke:none;stroke-width:0.26458332"
       id="text892"
       transform="translate(0,-1.0583333)">
      <path
         d="m 8.9881494,248.17886 h 0.1488282 q 0.029456,0.10232 0.029456,0.20774 v 0.22634 q 0.074414,-0.18294 0.2139405,-0.32091 0.1395263,-0.13798 0.2635498,-0.13798 0.1844848,0 0.2961059,0.12868 0.1116202,0.12712 0.1410762,0.33021 0.07752,-0.18914 0.207739,-0.32091 0.131775,-0.13333 0.258899,-0.13333 0.145728,0 0.246497,0.0915 0.102319,0.0899 0.145727,0.22789 0.04496,0.13643 0.04496,0.30541 v 0.96738 H 10.8454 v -0.96738 q 0,-0.0837 -0.01395,-0.16278 -0.01395,-0.0791 -0.04651,-0.15503 -0.03101,-0.076 -0.09302,-0.12247 -0.06201,-0.0465 -0.147277,-0.0465 -0.10387,0 -0.217041,0.11782 -0.113172,0.11627 -0.184485,0.2744 -0.07131,0.15813 -0.07131,0.28061 v 0.78134 H 9.9322779 v -0.97048 q 0,-0.0853 -0.013953,-0.16433 -0.013953,-0.0791 -0.044958,-0.15503 -0.031006,-0.076 -0.094568,-0.12092 -0.062012,-0.0465 -0.1488282,-0.0465 -0.096118,0 -0.2077392,0.11162 -0.1100708,0.11162 -0.1829346,0.26975 -0.072864,0.15813 -0.072864,0.28836 v 0.78754 H 9.0269068 v -1.36425 q 0,-0.13333 -0.038757,-0.20774 z"
         style="font-size:3.17499995px;fill:#ffffff;fill-opacity:1;stroke-width:0.26458332"
         id="path904"
         inkscape:connector-curvature="0" />
      <path
         d="m 12.237563,248.15405 q 0.162781,0 0.311609,0.0636 0.148828,0.0636 0.257349,0.17209 0.10852,0.10852 0.172082,0.2589 0.06356,0.15037 0.06356,0.31471 0,0.16588 -0.06356,0.31626 -0.06356,0.15037 -0.172082,0.25889 -0.108521,0.10697 -0.257349,0.17209 -0.148828,0.0636 -0.311609,0.0636 -0.333313,0 -0.568957,-0.2372 -0.235645,-0.23719 -0.235645,-0.5736 0,-0.22015 0.106971,-0.40618 0.10852,-0.18759 0.293005,-0.29456 0.186035,-0.10852 0.404626,-0.10852 z m -0.666626,0.80926 q 0,0.2775 0.195337,0.47594 0.196888,0.19688 0.47439,0.19688 0.277502,0 0.472839,-0.19688 0.196888,-0.19844 0.196888,-0.47594 0,-0.27596 -0.196888,-0.47284 -0.195337,-0.19689 -0.472839,-0.19689 -0.277502,0 -0.47439,0.19689 -0.195337,0.19688 -0.195337,0.47284 z"
         style="font-size:3.17499995px;fill:#ffffff;fill-opacity:1;stroke-width:0.26458332"
         id="path906"
         inkscape:connector-curvature="0" />
      <path
         d="m 14.896316,249.75085 h -0.148828 q -0.02636,-0.0915 -0.02636,-0.20773 v -0.19534 q -0.05891,0.16123 -0.234094,0.29455 -0.173633,0.13178 -0.348816,0.13178 -0.196888,0 -0.362769,-0.11007 -0.164331,-0.11007 -0.258899,-0.29611 -0.09302,-0.18758 -0.09302,-0.40462 0,-0.21705 0.09302,-0.40153 0.09457,-0.18604 0.258899,-0.29611 0.165881,-0.11162 0.362769,-0.11162 0.178283,0 0.351916,0.13023 0.173633,0.12867 0.230994,0.29765 v -1.14566 h 0.137976 v 2.10685 q 0,0.13332 0.03721,0.20773 z m -0.348816,-0.3116 q 0.173633,-0.19689 0.173633,-0.47594 0,-0.27906 -0.172083,-0.47439 -0.172082,-0.19534 -0.410827,-0.19534 -0.237195,0 -0.410828,0.19534 -0.173633,0.19533 -0.173633,0.47439 0,0.2775 0.173633,0.47594 0.173633,0.19688 0.410828,0.19688 0.237195,0 0.409277,-0.19688 z"
         style="font-size:3.17499995px;fill:#ffffff;fill-opacity:1;stroke-width:0.26458332"
         id="path908"
         inkscape:connector-curvature="0" />
    </g>
    <g
       aria-label="in"
       style="font-style:normal;font-variant:normal;font-weight:normal;font-stretch:normal;font-size:3.17499995px;line-height:1.25;font-family:Sawasdee;-inkscape-font-specification:Sawasdee;letter-spacing:0px;word-spacing:0px;fill:#ffffff;fill-opacity:1;stroke:none;stroke-width:0.26458332"
       id="text896"
       transform="translate(0,-0.52916667)">
      <path
         d="m 11.013607,263.12887 q 0,-0.0512 0.03566,-0.0884 0.03721,-0.0372 0.08992,-0.0372 0.05116,0 0.08682,0.0372 0.03721,0.0372 0.03721,0.0884 0,0.0527 -0.03566,0.0899 -0.03566,0.0356 -0.08837,0.0356 -0.05271,0 -0.08992,-0.0356 -0.03566,-0.0372 -0.03566,-0.0899 z m 0.195337,1.94407 h -0.139526 v -1.572 h 0.139526 z"
         style="font-size:3.17499995px;fill:#ffffff;fill-opacity:1;stroke-width:0.26458332"
         id="path911"
         inkscape:connector-curvature="0" />
      <path
         d="m 11.687985,263.50094 h 0.148828 q 0.02946,0.10232 0.02946,0.20774 v 0.23564 q 0.08527,-0.19378 0.235645,-0.33021 0.151929,-0.13797 0.294556,-0.13797 0.158129,0 0.26665,0.0884 0.110071,0.0884 0.15813,0.22634 0.04961,0.13798 0.04961,0.31161 v 0.97049 h -0.136426 v -0.97049 q 0,-0.0853 -0.01705,-0.16433 -0.0155,-0.0791 -0.05116,-0.15503 -0.03566,-0.076 -0.10697,-0.12092 -0.06976,-0.0465 -0.165881,-0.0465 -0.09147,0 -0.190686,0.0713 -0.09767,0.0713 -0.170532,0.17518 -0.07131,0.10232 -0.119373,0.21859 -0.04651,0.11627 -0.04651,0.20464 v 0.78755 H 11.72675 v -1.36426 q 0,-0.13333 -0.03876,-0.20774 z"
         style="font-size:3.17499995px;fill:#ffffff;fill-opacity:1;stroke-width:0.26458332"
         id="path913"
         inkscape:connector-curvature="0" />
    </g>
    <g
       aria-label="level"
       style="font-style:normal;font-variant:normal;font-weight:normal;font-stretch:normal;font-size:3.52777767px;line-height:1.25;font-family:Sawasdee;-inkscape-font-specification:Sawasdee;letter-spacing:0px;word-spacing:0px;fill:#ffffff;fill-opacity:1;stroke:none;stroke-width:0.26458332"
       id="text854"
       transform="translate(0,3.7041668)">
      <path
         d="M 8.7668889,229.93939 H 8.6118596 v -2.57176 h 0.1550293 z"
         style="fill:#ffffff;fill-opacity:1;stroke-width:0.26458332"
         id="path856"
         inkscape:connector-curvature="0" />
      <path
         d="m 9.4352374,228.91792 h 1.2695176 q -0.04823,-0.2601 -0.227376,-0.42891 -0.179145,-0.16881 -0.409967,-0.16881 -0.2290984,0 -0.4082434,0.16881 -0.1774224,0.16881 -0.2239312,0.42891 z m 1.4383276,0.14642 H 9.4111217 q 0,0.30833 0.1929254,0.52365 0.1929253,0.21532 0.4564749,0.21532 0.173978,0 0.341065,-0.093 0.167087,-0.093 0.254937,-0.24977 l 0.136081,0.0775 q -0.105075,0.18776 -0.310059,0.30833 -0.204983,0.11886 -0.422024,0.11886 -0.2187633,0 -0.4030759,-0.1223 -0.1825901,-0.1223 -0.2876655,-0.32901 -0.1033529,-0.20843 -0.1033529,-0.44958 0,-0.23944 0.1050755,-0.44614 0.1067979,-0.20671 0.2911105,-0.32901 0.1860352,-0.12402 0.4047983,-0.12402 0.206706,0 0.384129,0.11196 0.179145,0.11025 0.289388,0.298 0.110243,0.18776 0.129191,0.41169 z"
         style="fill:#ffffff;fill-opacity:1;stroke-width:0.26458332"
         id="path858"
         inkscape:connector-curvature="0" />
      <path
         d="m 11.14056,228.19273 h 0.165364 l 0.589112,1.39698 0.585666,-1.39698 h 0.172255 l -0.752754,1.79834 z"
         style="fill:#ffffff;fill-opacity:1;stroke-width:0.26458332"
         id="path860"
         inkscape:connector-curvature="0" />
      <path
         d="m 13.093929,228.91792 h 1.269517 q -0.04823,-0.2601 -0.227376,-0.42891 -0.179145,-0.16881 -0.409966,-0.16881 -0.229099,0 -0.408244,0.16881 -0.177423,0.16881 -0.223931,0.42891 z m 1.438327,0.14642 h -1.462443 q 0,0.30833 0.192925,0.52365 0.192926,0.21532 0.456475,0.21532 0.173978,0 0.341065,-0.093 0.167087,-0.093 0.254937,-0.24977 l 0.136081,0.0775 q -0.105075,0.18776 -0.310058,0.30833 -0.204984,0.11886 -0.422025,0.11886 -0.218763,0 -0.403076,-0.1223 -0.18259,-0.1223 -0.287665,-0.32901 -0.103353,-0.20843 -0.103353,-0.44958 0,-0.23944 0.105075,-0.44614 0.106798,-0.20671 0.291111,-0.32901 0.186035,-0.12402 0.404799,-0.12402 0.206705,0 0.384128,0.11196 0.179145,0.11025 0.289388,0.298 0.110243,0.18776 0.129191,0.41169 z"
         style="fill:#ffffff;fill-opacity:1;stroke-width:0.26458332"
         id="path862"
         inkscape:connector-curvature="0" />
      <path
         d="m 15.181657,229.93939 h -0.15503 v -2.57176 h 0.15503 z"
         style="fill:#ffffff;fill-opacity:1;stroke-width:0.26458332"
         id="path864"
         inkscape:connector-curvature="0" />
    </g>
  </g>
</svg>
