<?xml version="1.0" encoding="UTF-8" standalone="no"?>
<!-- Created with Inkscape (http://www.inkscape.org/) -->

<svg
   xmlns:dc="http://purl.org/dc/elements/1.1/"
   xmlns:cc="http://creativecommons.org/ns#"
   xmlns:rdf="http://www.w3.org/1999/02/22-rdf-syntax-ns#"
   xmlns:svg="http://www.w3.org/2000/svg"
   xmlns="http://www.w3.org/2000/svg"
   xmlns:sodipodi="http://sodipodi.sourceforge.net/DTD/sodipodi-0.dtd"
   xmlns:inkscape="http://www.inkscape.org/namespaces/inkscape"
   width="90"
   height="380"
   viewBox="0 0 23.812501 100.54167"
   version="1.1"
   id="svg8"
   inkscape:version="0.91 r13725"
   sodipodi:docname="VCO.svg">
  <defs
     id="defs2" />
  <sodipodi:namedview
     id="base"
     pagecolor="#ffffff"
     bordercolor="#666666"
     borderopacity="1.0"
     inkscape:pageopacity="0.0"
     inkscape:pageshadow="2"
     inkscape:zoom="11.2"
     inkscape:cx="31.329589"
     inkscape:cy="25.107019"
     inkscape:document-units="mm"
     inkscape:current-layer="layer1"
     showgrid="false"
     units="px"
     inkscape:snap-bbox="true"
     inkscape:snap-page="true"
     inkscape:bbox-nodes="true"
     inkscape:snap-bbox-edge-midpoints="true"
     inkscape:window-width="1920"
     inkscape:window-height="993"
     inkscape:window-x="0"
     inkscape:window-y="24"
     inkscape:window-maximized="1"
     showguides="false" />
  <metadata
     id="metadata5">
    <rdf:RDF>
      <cc:Work
         rdf:about="">
        <dc:format>image/svg+xml</dc:format>
        <dc:type
           rdf:resource="http://purl.org/dc/dcmitype/StillImage" />
        <dc:title />
      </cc:Work>
    </rdf:RDF>
  </metadata>
  <g
     inkscape:label="Layer 1"
     inkscape:groupmode="layer"
     id="layer1"
     transform="translate(0,-196.45832)">
    <path
       style="opacity:1;vector-effect:none;fill:#525252;fill-opacity:1;fill-rule:evenodd;stroke:none;stroke-width:0.48607069;stroke-linecap:butt;stroke-linejoin:round;stroke-miterlimit:4;stroke-dasharray:none;stroke-dashoffset:0;stroke-opacity:1;paint-order:normal"
       d="M 0,196.45831 H 23.8125 V 296.99999 H 0 Z"
       id="rect817"
       inkscape:connector-curvature="0" />
    <path
       style="fill:#2e277d;fill-opacity:1;stroke:none;stroke-width:0.1889881;stroke-opacity:1"
       d="m 8.8444555,211.84806 c -1.4820741,-0.39961 -3.6987109,-1.95115 -3.3235423,-2.32632 0.07116,-0.0712 1.2975537,-1.09033 2.7253247,-2.26483 l 2.5959461,-2.13545 3.470492,-0.004 3.47049,-0.004 -0.13157,0.8977 c -0.615156,4.19713 -4.742593,6.93237 -8.8071405,5.83645 z"
       id="path5592"
       inkscape:connector-curvature="0" />
    <g
       aria-label="VCO"
       style="font-style:normal;font-variant:normal;font-weight:normal;font-stretch:normal;font-size:3.52777767px;line-height:1.25;font-family:Sawasdee;-inkscape-font-specification:Sawasdee;letter-spacing:0px;word-spacing:0px;fill:#fefefe;fill-opacity:1;stroke:none;stroke-width:0.26458332"
       id="text64">
      <path
         d="m 11.98817,201.9774 h 0.170532 l -1.033528,2.60105 -1.064535,-2.60105 h 0.165365 l 0.894002,2.18591 z"
         style="font-size:3.52777767px;fill:#fefefe;fill-opacity:1;stroke-width:0.26458332"
         id="path962" />
      <path
         d="m 14.658119,203.95316 0.124024,0.0844 q -0.179145,0.24632 -0.454753,0.38929 -0.275608,0.14125 -0.594279,0.14125 -0.265272,0 -0.506429,-0.10335 -0.241157,-0.10335 -0.415134,-0.27905 -0.173977,-0.1757 -0.27733,-0.41858 -0.103353,-0.24288 -0.103353,-0.50988 0,-0.26699 0.103353,-0.50987 0.103353,-0.24288 0.27733,-0.41858 0.173977,-0.1757 0.415134,-0.27905 0.241157,-0.10336 0.506429,-0.10336 0.316949,0 0.592557,0.1447 0.275607,0.14297 0.456475,0.39102 l -0.124024,0.0913 q -0.160197,-0.21532 -0.403076,-0.33934 -0.241157,-0.12575 -0.521932,-0.12575 -0.313504,0 -0.578776,0.15503 -0.26355,0.15503 -0.416856,0.42203 -0.153307,0.26527 -0.153307,0.5805 0,0.23426 0.08957,0.44786 0.0913,0.21359 0.244602,0.36862 0.153307,0.15503 0.366903,0.24805 0.213596,0.0913 0.447862,0.0913 0.280775,0 0.521932,-0.12575 0.242879,-0.12575 0.403076,-0.34279 z"
         style="font-size:3.52777767px;fill:#fefefe;fill-opacity:1;stroke-width:0.26458332"
         id="path964" />
      <path
         d="m 15.996539,202.05836 q 0.241156,-0.10335 0.506429,-0.10335 0.265272,0 0.506429,0.10335 0.242879,0.10335 0.416856,0.27905 0.1757,0.1757 0.279053,0.41858 0.103353,0.24288 0.103353,0.50988 0,0.26699 -0.103353,0.50987 -0.103353,0.24116 -0.279053,0.41686 -0.173977,0.1757 -0.416856,0.27905 -0.241157,0.10335 -0.506429,0.10335 -0.265273,0 -0.506429,-0.10335 -0.241157,-0.10335 -0.415134,-0.27905 -0.173977,-0.1757 -0.27733,-0.41686 -0.103353,-0.24288 -0.103353,-0.50987 0,-0.267 0.103353,-0.50988 0.103353,-0.24288 0.27733,-0.41858 0.173977,-0.1757 0.415134,-0.27905 z m -0.64251,1.20751 q 0,0.23426 0.08957,0.44786 0.0913,0.21359 0.244602,0.36862 0.153307,0.15503 0.366902,0.24805 0.213596,0.0913 0.447863,0.0913 0.235989,0 0.449585,-0.0913 0.213596,-0.093 0.366902,-0.24805 0.153307,-0.15503 0.244602,-0.36862 0.0913,-0.2136 0.0913,-0.44786 0,-0.31523 -0.153306,-0.5805 -0.153307,-0.267 -0.420302,-0.42203 -0.265272,-0.15503 -0.578776,-0.15503 -0.313504,0 -0.578776,0.15503 -0.26355,0.15503 -0.416857,0.42203 -0.153306,0.26527 -0.153306,0.5805 z"
         style="font-size:3.52777767px;fill:#fefefe;fill-opacity:1;stroke-width:0.26458332"
         id="path966" />
    </g>
    <g
       aria-label="JEM Modules"
       style="font-style:normal;font-variant:normal;font-weight:normal;font-stretch:normal;font-size:3.17499995px;line-height:1.25;font-family:Sawasdee;-inkscape-font-specification:Sawasdee;letter-spacing:0px;word-spacing:0px;fill:#ffffff;fill-opacity:1;stroke:none;stroke-width:0.26458332"
       id="text876">
      <path
         d="m 3.5428293,289.48217 h 0.1302246 v 1.71462 q 0,0.2558 -0.1658813,0.44028 -0.1643311,0.18294 -0.4015259,0.18294 -0.2387451,0 -0.4046265,-0.18294 -0.164331,-0.18293 -0.164331,-0.44028 h 0.1379761 q 0,0.20154 0.127124,0.34416 0.1286743,0.14108 0.306958,0.14108 0.1782837,0 0.3054077,-0.14108 0.1286743,-0.14262 0.1286743,-0.34416 z"
         style="font-size:3.17499995px;fill:#ffffff;fill-opacity:1;stroke-width:0.26458332"
         id="path1002" />
      <path
         d="m 5.435737,290.38289 v 0.13952 H 4.3257273 v 1.13482 H 5.525654 v 0.13952 H 4.1862009 v -2.31458 h 1.3456543 v 0.13952 H 4.3257273 v 0.7612 z"
         style="font-size:3.17499995px;fill:#ffffff;fill-opacity:1;stroke-width:0.26458332"
         id="path1004" />
      <path
         d="M 5.817109,291.79675 H 5.6806832 l 0.4433838,-2.34249 0.8449097,2.00918 0.8588623,-2.00918 0.4309814,2.34249 H 8.1130929 L 7.7735787,289.9364 6.9596749,291.82311 6.1705758,289.9364 Z"
         style="font-size:3.17499995px;fill:#ffffff;fill-opacity:1;stroke-width:0.26458332"
         id="path1006" />
      <path
         d="M 9.637031,291.79675 H 9.5006052 l 0.4433838,-2.34249 0.84491,2.00918 0.858862,-2.00918 0.430981,2.34249 h -0.145727 l -0.339514,-1.86035 -0.813904,1.88671 -0.7890992,-1.88671 z"
         style="font-size:3.17499995px;fill:#ffffff;fill-opacity:1;stroke-width:0.26458332"
         id="path1008" />
      <path
         d="m 13.12674,290.19995 q 0.162781,0 0.311609,0.0636 0.148828,0.0636 0.257349,0.17209 0.10852,0.10852 0.172082,0.25889 0.06356,0.15038 0.06356,0.31471 0,0.16589 -0.06356,0.31626 -0.06356,0.15038 -0.172082,0.2589 -0.108521,0.10697 -0.257349,0.17209 -0.148828,0.0636 -0.311609,0.0636 -0.333313,0 -0.568957,-0.2372 -0.235645,-0.23719 -0.235645,-0.57361 0,-0.22014 0.10697,-0.40617 0.108521,-0.18759 0.293006,-0.29456 0.186035,-0.10852 0.404626,-0.10852 z m -0.666626,0.80925 q 0,0.27751 0.195337,0.47594 0.196887,0.19689 0.47439,0.19689 0.277502,0 0.472839,-0.19689 0.196887,-0.19843 0.196887,-0.47594 0,-0.27595 -0.196887,-0.47284 -0.195337,-0.19688 -0.472839,-0.19688 -0.277503,0 -0.47439,0.19688 -0.195337,0.19689 -0.195337,0.47284 z"
         style="font-size:3.17499995px;fill:#ffffff;fill-opacity:1;stroke-width:0.26458332"
         id="path1010" />
      <path
         d="m 15.785493,291.79675 h -0.148828 q -0.02636,-0.0915 -0.02636,-0.20774 v -0.19533 q -0.05891,0.16123 -0.234094,0.29455 -0.173633,0.13178 -0.348816,0.13178 -0.196887,0 -0.362769,-0.11007 -0.164331,-0.11007 -0.258898,-0.29611 -0.09302,-0.18758 -0.09302,-0.40463 0,-0.21704 0.09302,-0.40152 0.09457,-0.18604 0.258898,-0.29611 0.165882,-0.11162 0.362769,-0.11162 0.178284,0 0.351917,0.13023 0.173632,0.12867 0.230993,0.29765 v -1.14566 h 0.137976 v 2.10684 q 0,0.13333 0.03721,0.20774 z m -0.348816,-0.31161 q 0.173633,-0.19688 0.173633,-0.47594 0,-0.27905 -0.172082,-0.47439 -0.172083,-0.19533 -0.410828,-0.19533 -0.237195,0 -0.410828,0.19533 -0.173632,0.19534 -0.173632,0.47439 0,0.27751 0.173632,0.47594 0.173633,0.19689 0.410828,0.19689 0.237195,0 0.409277,-0.19689 z"
         style="font-size:3.17499995px;fill:#ffffff;fill-opacity:1;stroke-width:0.26458332"
         id="path1012" />
      <path
         d="m 16.266084,290.22476 h 0.139526 v 0.97203 q 0,0.20309 0.122473,0.34416 0.122473,0.14108 0.299207,0.14108 0.178283,0 0.306958,-0.14108 0.130224,-0.14262 0.130224,-0.34416 v -0.97203 h 0.139527 v 0.97203 q 0,0.2558 -0.165882,0.44028 -0.165881,0.18294 -0.404626,0.18294 -0.237195,0 -0.403076,-0.18294 -0.164331,-0.18448 -0.164331,-0.44028 z"
         style="font-size:3.17499995px;fill:#ffffff;fill-opacity:1;stroke-width:0.26458332"
         id="path1014" />
      <path
         d="m 18.061323,291.79675 h -0.139526 v -2.31458 h 0.139526 z"
         style="font-size:3.17499995px;fill:#ffffff;fill-opacity:1;stroke-width:0.26458332"
         id="path1016" />
      <path
         d="m 18.662836,290.87743 h 1.142566 q -0.04341,-0.2341 -0.204639,-0.38602 -0.16123,-0.15193 -0.368969,-0.15193 -0.206189,0 -0.36742,0.15193 -0.15968,0.15192 -0.201538,0.38602 z m 1.294495,0.13177 h -1.316199 q 0,0.27751 0.173633,0.47129 0.173633,0.19379 0.410828,0.19379 0.156579,0 0.306958,-0.0837 0.150378,-0.0837 0.229443,-0.22479 l 0.122473,0.0698 q -0.09457,0.16899 -0.279053,0.27751 -0.184484,0.10697 -0.379821,0.10697 -0.196888,0 -0.362769,-0.11007 -0.164331,-0.11007 -0.258899,-0.29611 -0.09302,-0.18758 -0.09302,-0.40463 0,-0.21549 0.09457,-0.40152 0.09612,-0.18604 0.262,-0.29611 0.167432,-0.11162 0.364319,-0.11162 0.186035,0 0.345715,0.10077 0.161231,0.0992 0.260449,0.2682 0.09922,0.16898 0.116272,0.37052 z"
         style="font-size:3.17499995px;fill:#ffffff;fill-opacity:1;stroke-width:0.26458332"
         id="path1018" />
      <path
         d="m 21.240974,290.50226 -0.128674,0.045 q -0.03256,-0.10387 -0.110071,-0.15813 -0.07751,-0.0558 -0.165882,-0.0558 -0.102319,0 -0.175183,0.0651 -0.07131,0.0651 -0.07131,0.17673 0,0.0589 0.03256,0.10697 0.03256,0.0481 0.08527,0.0791 0.05271,0.031 0.119373,0.0636 0.06821,0.0326 0.137976,0.0605 0.06976,0.0279 0.136425,0.0698 0.06821,0.0419 0.120923,0.0899 0.05271,0.0481 0.08527,0.12402 0.03256,0.076 0.03256,0.17054 0,0.21549 -0.153479,0.35036 -0.153479,0.13333 -0.356568,0.13333 -0.08837,0 -0.168982,-0.0279 -0.08061,-0.0294 -0.148828,-0.0853 -0.06821,-0.0558 -0.116272,-0.14883 -0.04806,-0.093 -0.06201,-0.21239 l 0.137977,-0.0202 q 0.0217,0.17674 0.122473,0.26665 0.102319,0.0899 0.238745,0.0899 0.144177,0 0.255798,-0.0961 0.111621,-0.0977 0.111621,-0.24959 0,-0.0837 -0.04186,-0.14728 -0.04186,-0.0651 -0.10852,-0.10542 -0.06511,-0.0403 -0.145728,-0.076 -0.08062,-0.0356 -0.16123,-0.0729 -0.08062,-0.0372 -0.147278,-0.0806 -0.06511,-0.045 -0.10697,-0.11628 -0.04186,-0.0729 -0.04186,-0.16588 0,-0.17363 0.114722,-0.27595 0.116271,-0.10232 0.274401,-0.10232 0.130225,0 0.243396,0.0791 0.113172,0.0775 0.161231,0.22634 z"
         style="font-size:3.17499995px;fill:#ffffff;fill-opacity:1;stroke-width:0.26458332"
         id="path1020" />
    </g>
    <flowRoot
       xml:space="preserve"
       id="flowRoot878"
       style="fill:black;fill-opacity:1;stroke:none;font-family:Sawasdee;font-style:normal;font-weight:normal;font-size:13.33333333px;line-height:1.25;letter-spacing:0px;word-spacing:0px;-inkscape-font-specification:Sawasdee;font-stretch:normal;font-variant:normal"><flowRegion
         id="flowRegion880"><rect
           id="rect882"
           width="48.92857"
           height="17.5"
           x="-102.85714"
           y="330.71429" /></flowRegion><flowPara
         id="flowPara884" /></flowRoot>    <g
       aria-label="sine"
       style="font-style:normal;font-variant:normal;font-weight:normal;font-stretch:normal;font-size:3.17499995px;line-height:1.25;font-family:Sawasdee;-inkscape-font-specification:Sawasdee;letter-spacing:0px;word-spacing:0px;fill:#ffffff;fill-opacity:1;stroke:none;stroke-width:0.26458332"
       id="text888">
      <path
         d="m 10.175933,278.4227 -0.128674,0.045 q -0.03256,-0.10387 -0.1100709,-0.15813 -0.077515,-0.0558 -0.1658813,-0.0558 -0.1023193,0 -0.1751831,0.0651 -0.071314,0.0651 -0.071314,0.17673 0,0.0589 0.032556,0.10697 0.032556,0.0481 0.085266,0.0791 0.05271,0.031 0.1193725,0.0636 0.068213,0.0326 0.1379761,0.0605 0.069763,0.0279 0.1364259,0.0698 0.06821,0.0419 0.120923,0.0899 0.05271,0.0481 0.08527,0.12402 0.03256,0.076 0.03256,0.17054 0,0.21549 -0.153479,0.35036 -0.153479,0.13333 -0.3565674,0.13333 -0.088367,0 -0.1689819,-0.0279 -0.080615,-0.0294 -0.1488281,-0.0853 -0.068213,-0.0558 -0.116272,-0.14883 -0.048059,-0.093 -0.062012,-0.21239 l 0.137976,-0.0202 q 0.021704,0.17673 0.1224732,0.26665 0.1023193,0.0899 0.2387451,0.0899 0.1441772,0 0.2557988,-0.0961 0.111621,-0.0977 0.111621,-0.24959 0,-0.0837 -0.04186,-0.14728 -0.04186,-0.0651 -0.1085208,-0.10542 -0.065112,-0.0403 -0.1457275,-0.076 -0.080615,-0.0357 -0.1612305,-0.0729 -0.080615,-0.0372 -0.1472778,-0.0806 -0.065112,-0.045 -0.1069702,-0.11628 -0.041858,-0.0729 -0.041858,-0.16588 0,-0.17363 0.1147216,-0.27595 0.116272,-0.10232 0.2744019,-0.10232 0.1302246,0 0.2433962,0.0791 0.113171,0.0775 0.16123,0.22634 z"
         style="font-size:3.17499995px;fill:#ffffff;fill-opacity:1;stroke-width:0.26458332"
         id="path993" />
      <path
         d="m 10.664275,277.77313 q 0,-0.0512 0.03566,-0.0884 0.03721,-0.0372 0.08992,-0.0372 0.05116,0 0.08682,0.0372 0.03721,0.0372 0.03721,0.0884 0,0.0527 -0.03566,0.0899 -0.03566,0.0357 -0.08837,0.0357 -0.05271,0 -0.08992,-0.0357 -0.03566,-0.0372 -0.03566,-0.0899 z m 0.195337,1.94406 h -0.139526 v -1.57199 h 0.139526 z"
         style="font-size:3.17499995px;fill:#ffffff;fill-opacity:1;stroke-width:0.26458332"
         id="path995" />
      <path
         d="m 11.338653,278.1452 h 0.148828 q 0.02946,0.10232 0.02946,0.20774 v 0.23564 q 0.08527,-0.19379 0.235644,-0.33021 0.151929,-0.13798 0.294556,-0.13798 0.15813,0 0.26665,0.0884 0.110071,0.0884 0.15813,0.22634 0.04961,0.13798 0.04961,0.31161 v 0.97048 h -0.136425 v -0.97048 q 0,-0.0853 -0.01705,-0.16433 -0.0155,-0.0791 -0.05116,-0.15503 -0.03566,-0.076 -0.10697,-0.12092 -0.06976,-0.0465 -0.165882,-0.0465 -0.09147,0 -0.190686,0.0713 -0.09767,0.0713 -0.170532,0.17518 -0.07131,0.10232 -0.119373,0.2186 -0.04651,0.11627 -0.04651,0.20463 v 0.78755 H 11.37741 v -1.36425 q 0,-0.13333 -0.03876,-0.20774 z"
         style="font-size:3.17499995px;fill:#ffffff;fill-opacity:1;stroke-width:0.26458332"
         id="path997" />
      <path
         d="m 13.12304,278.79787 h 1.142566 q -0.04341,-0.23409 -0.204639,-0.38602 -0.16123,-0.15193 -0.36897,-0.15193 -0.206189,0 -0.367419,0.15193 -0.15968,0.15193 -0.201538,0.38602 z m 1.294495,0.13177 h -1.316199 q 0,0.27751 0.173633,0.47129 0.173632,0.19379 0.410827,0.19379 0.15658,0 0.306958,-0.0837 0.150379,-0.0837 0.229444,-0.22479 l 0.122473,0.0698 q -0.09457,0.16898 -0.279053,0.2775 -0.184485,0.10697 -0.379822,0.10697 -0.196887,0 -0.362768,-0.11007 -0.164331,-0.11007 -0.258899,-0.29611 -0.09302,-0.18758 -0.09302,-0.40463 0,-0.21549 0.09457,-0.40152 0.09612,-0.18604 0.262,-0.29611 0.167431,-0.11162 0.364318,-0.11162 0.186036,0 0.345716,0.10077 0.16123,0.0992 0.260449,0.2682 0.09922,0.16898 0.116272,0.37052 z"
         style="font-size:3.17499995px;fill:#ffffff;fill-opacity:1;stroke-width:0.26458332"
         id="path999" />
    </g>
    <g
       aria-label="pitch"
       style="font-style:normal;font-variant:normal;font-weight:normal;font-stretch:normal;font-size:3.17499995px;line-height:1.25;font-family:Sawasdee;-inkscape-font-specification:Sawasdee;letter-spacing:0px;word-spacing:0px;fill:#ffffff;fill-opacity:1;stroke:none;stroke-width:0.26458332"
       id="text892">
      <path
         d="m 8.825032,232.01245 h 0.1488282 q 0.029455,0.10231 0.029455,0.20773 v 0.19534 q 0.058911,-0.16278 0.232544,-0.29455 0.1736328,-0.13333 0.3503662,-0.13333 0.1968872,0 0.3612182,0.11162 0.1643309,0.11007 0.2573489,0.29611 0.09457,0.18603 0.09457,0.40152 0,0.21704 -0.09457,0.40463 -0.09302,0.18603 -0.2573489,0.29611 -0.164331,0.11007 -0.3612182,0.11007 -0.179834,0 -0.3534668,-0.12713 -0.1720825,-0.12867 -0.2294434,-0.2992 v 1.17977 H 8.8637894 v -2.14096 q 0,-0.13332 -0.038757,-0.20773 z m 0.3503662,0.31005 q -0.1720825,0.19534 -0.1720825,0.47439 0,0.27906 0.1720825,0.47594 0.1720826,0.19689 0.4108277,0.19689 0.2356445,0 0.4092773,-0.19689 0.1736328,-0.19843 0.1736328,-0.47594 0,-0.27905 -0.1736328,-0.47439 -0.1736328,-0.19533 -0.4092773,-0.19533 -0.2387451,0 -0.4108277,0.19533 z"
         style="font-size:3.17499995px;fill:#ffffff;fill-opacity:1;stroke-width:0.26458332"
         id="path969" />
      <path
         d="m 10.693135,231.64037 q 0,-0.0511 0.03566,-0.0884 0.03721,-0.0372 0.08992,-0.0372 0.05116,0 0.08682,0.0372 0.03721,0.0372 0.03721,0.0884 0,0.0527 -0.03566,0.0899 -0.03566,0.0357 -0.08837,0.0357 -0.05271,0 -0.08992,-0.0357 -0.03566,-0.0372 -0.03566,-0.0899 z m 0.195337,1.94407 h -0.139526 v -1.57199 h 0.139526 z"
         style="font-size:3.17499995px;fill:#ffffff;fill-opacity:1;stroke-width:0.26458332"
         id="path971" />
      <path
         d="M 11.545796,233.58444 H 11.40627 v -1.43402 h -0.137976 v -0.13797 h 0.137976 v -0.37208 h 0.139526 v 0.37208 h 0.434082 l -0.04651,0.13797 h -0.387573 z"
         style="font-size:3.17499995px;fill:#ffffff;fill-opacity:1;stroke-width:0.26458332"
         id="path973" />
      <path
         d="m 13.399947,233.15036 0.117822,0.0698 q -0.09612,0.17364 -0.258899,0.27751 -0.161231,0.10387 -0.350366,0.10387 -0.196887,0 -0.362769,-0.10853 -0.164331,-0.11007 -0.258899,-0.2961 -0.09302,-0.18604 -0.09302,-0.40308 0,-0.21859 0.09302,-0.40462 0.09457,-0.18604 0.258899,-0.29456 0.165882,-0.11007 0.362769,-0.11007 0.189135,0 0.350366,0.10387 0.162781,0.10387 0.258899,0.2775 l -0.117822,0.0698 q -0.08217,-0.14263 -0.212391,-0.2248 -0.128674,-0.0837 -0.279052,-0.0837 -0.237195,0 -0.410828,0.19223 -0.173633,0.19224 -0.173633,0.46974 0,0.27905 0.173633,0.47439 0.173633,0.19534 0.410828,0.19534 0.150378,0 0.280603,-0.0822 0.130224,-0.0822 0.21084,-0.22634 z"
         style="font-size:3.17499995px;fill:#ffffff;fill-opacity:1;stroke-width:0.26458332"
         id="path975" />
      <path
         d="m 13.967354,233.58444 v -2.31459 h 0.139526 v 1.18908 q 0.08061,-0.18914 0.234094,-0.33021 0.153479,-0.14108 0.296106,-0.14108 0.15813,0 0.266651,0.0884 0.11007,0.0884 0.158129,0.22634 0.04961,0.13798 0.04961,0.31161 v 0.97048 h -0.136426 v -0.97048 q 0,-0.0853 -0.01705,-0.16433 -0.0155,-0.0791 -0.05116,-0.15503 -0.03566,-0.076 -0.10697,-0.12092 -0.06976,-0.0465 -0.165881,-0.0465 -0.09147,0 -0.190686,0.0713 -0.09767,0.0713 -0.170533,0.17518 -0.07131,0.10232 -0.119372,0.21859 -0.04651,0.11628 -0.04651,0.20464 v 0.78755 z"
         style="font-size:3.17499995px;fill:#ffffff;fill-opacity:1;stroke-width:0.26458332"
         id="path977" />
    </g>
    <g
       aria-label="1v/oct"
       style="font-style:normal;font-variant:normal;font-weight:normal;font-stretch:normal;font-size:3.17499995px;line-height:1.25;font-family:Sawasdee;-inkscape-font-specification:Sawasdee;letter-spacing:0px;word-spacing:0px;fill:#ffffff;fill-opacity:1;stroke:none;stroke-width:0.26458332"
       id="text896">
      <path
         d="m 7.6458295,256.98563 -0.0062,-2.06499 -0.2511475,0.15037 -0.069763,-0.12247 0.4666381,-0.2775 v 2.31459 z"
         style="font-size:3.17499995px;fill:#ffffff;fill-opacity:1;stroke-width:0.26458332"
         id="path980" />
      <path
         d="m 8.6922772,255.41363 h 0.1488281 l 0.5302002,1.25729 0.5270996,-1.25729 h 0.1550289 l -0.6774776,1.61851 z"
         style="font-size:3.17499995px;fill:#ffffff;fill-opacity:1;stroke-width:0.26458332"
         id="path982" />
      <path
         d="m 11.747905,254.67104 h 0.173632 l -1.646411,2.31459 h -0.168982 z"
         style="font-size:3.17499995px;fill:#ffffff;fill-opacity:1;stroke-width:0.26458332"
         id="path984" />
      <path
         d="m 12.913725,255.38882 q 0.16278,0 0.311609,0.0636 0.148828,0.0636 0.257348,0.17208 0.108521,0.10852 0.172083,0.2589 0.06356,0.15038 0.06356,0.31471 0,0.16588 -0.06356,0.31626 -0.06356,0.15038 -0.172083,0.2589 -0.10852,0.10697 -0.257348,0.17208 -0.148829,0.0636 -0.311609,0.0636 -0.333313,0 -0.568958,-0.23719 -0.235644,-0.2372 -0.235644,-0.57361 0,-0.22014 0.10697,-0.40618 0.10852,-0.18758 0.293005,-0.29456 0.186035,-0.10852 0.404627,-0.10852 z m -0.666626,0.80926 q 0,0.2775 0.195337,0.47594 0.196887,0.19688 0.474389,0.19688 0.277503,0 0.47284,-0.19688 0.196887,-0.19844 0.196887,-0.47594 0,-0.27595 -0.196887,-0.47284 -0.195337,-0.19689 -0.47284,-0.19689 -0.277502,0 -0.474389,0.19689 -0.195337,0.19689 -0.195337,0.47284 z"
         style="font-size:3.17499995px;fill:#ffffff;fill-opacity:1;stroke-width:0.26458332"
         id="path986" />
      <path
         d="m 15.305827,256.55154 0.117822,0.0698 q -0.09612,0.17363 -0.258899,0.2775 -0.16123,0.10387 -0.350366,0.10387 -0.196887,0 -0.362769,-0.10852 -0.164331,-0.11007 -0.258899,-0.29611 -0.09302,-0.18603 -0.09302,-0.40307 0,-0.21859 0.09302,-0.40463 0.09457,-0.18603 0.258899,-0.29456 0.165882,-0.11007 0.362769,-0.11007 0.189136,0 0.350366,0.10387 0.162781,0.10387 0.258899,0.27751 l -0.117822,0.0698 q -0.08217,-0.14263 -0.21239,-0.22479 -0.128675,-0.0837 -0.279053,-0.0837 -0.237195,0 -0.410828,0.19224 -0.173632,0.19223 -0.173632,0.46974 0,0.27905 0.173632,0.47439 0.173633,0.19533 0.410828,0.19533 0.150378,0 0.280603,-0.0822 0.130225,-0.0822 0.21084,-0.22635 z"
         style="font-size:3.17499995px;fill:#ffffff;fill-opacity:1;stroke-width:0.26458332"
         id="path988" />
      <path
         d="m 16.01276,256.98563 h -0.139526 v -1.43402 h -0.137976 v -0.13798 h 0.137976 v -0.37207 h 0.139526 v 0.37207 h 0.434082 l -0.04651,0.13798 H 16.01276 Z"
         style="font-size:3.17499995px;fill:#ffffff;fill-opacity:1;stroke-width:0.26458332"
         id="path990" />
    </g>
  </g>
</svg>
